<svg width="80" height="64" viewBox="0 0 80 64" fill="none" xmlns="http://www.w3.org/2000/svg">
<path d="M33.8152 18.2695C36.2154 15.6647 43.2312 14.2276 46.0006 18.2695" stroke="#A02727" stroke-width="7"/>
<ellipse cx="18.5832" cy="18" rx="15.4165" ry="15" stroke="#A02727" stroke-width="6"/>
<ellipse cx="18.5831" cy="18" rx="15.2318" ry="14.8204" fill="#161C22"/>
<ellipse cx="26.5223" cy="10.6348" rx="4.15414" ry="4.04192" fill="#2B4F72"/>
<ellipse cx="61.4169" cy="18" rx="15.4165" ry="15" stroke="#A02727" stroke-width="6"/>
<ellipse cx="61.4169" cy="18" rx="15.2318" ry="14.8204" fill="#161C22"/>
<ellipse cx="69.356" cy="10.6348" rx="4.15414" ry="4.04192" fill="#2B4F72"/>
<path d="M18.2 44.16C17.92 44.7733 17.5067 45.28 16.96 45.68C16.4133 46.08 15.82 46.28 15.18 46.28C14.54 46.28 14.0133 46.0933 13.6 45.72C13.2 45.3467 13 44.7933 13 44.06C13 43.3267 13.3267 42.7667 13.98 42.38C14.6333 41.98 15.4 41.78 16.28 41.78H24.22C24.26 41.9667 24.28 42.1467 24.28 42.32C24.28 42.7733 24.1333 43.1933 23.84 43.58C23.5467 43.9667 23.1 44.16 22.5 44.16C22.4733 44.16 22.4533 44.16 22.44 44.16H18.2ZM15.6 44.16C15.1067 44.16 14.86 44.3333 14.86 44.68C14.86 44.96 15.0733 45.1 15.5 45.1C15.7 45.1 15.9333 45.0133 16.2 44.84C16.48 44.6667 16.7133 44.44 16.9 44.16H15.6ZM19.74 53.16C19.4067 55.7733 18.2267 57.08 16.2 57.08C15.48 57.08 14.9 56.86 14.46 56.42C14.0333 55.98 13.82 55.4267 13.82 54.76C13.82 53.2 15.0067 51.8667 17.38 50.76L18.08 45.44C18.6267 45.0933 19.26 44.92 19.98 44.92C20.3133 44.92 20.6333 44.9533 20.94 45.02L19.74 53.16ZM17.16 52.46C15.92 53.18 15.3 53.8733 15.3 54.54C15.3 55.02 15.5333 55.26 16 55.26C16.5333 55.26 16.8667 54.7467 17 53.72L17.16 52.46ZM29.6498 57.1C28.4232 57.1 27.6098 56.6733 27.2098 55.82C26.5165 56.6867 25.6232 57.12 24.5298 57.12C23.4498 57.12 22.5365 56.7533 21.7898 56.02C21.0565 55.2867 20.6898 54.32 20.6898 53.12C20.6898 51.3733 21.2032 49.98 22.2298 48.94C23.2565 47.9 24.5565 47.38 26.1298 47.38C26.1698 47.38 26.2098 47.38 26.2498 47.38C26.9165 47.38 27.5298 47.4933 28.0898 47.72C28.4498 47.4933 28.8832 47.38 29.3898 47.38C29.9098 47.38 30.2832 47.4467 30.5098 47.58C30.3898 48.5667 30.2632 49.54 30.1298 50.5C29.9965 51.4467 29.9032 52.12 29.8498 52.52C29.7298 53.4267 29.6698 54.08 29.6698 54.48C29.6698 55.0133 29.8832 55.28 30.3098 55.28C30.6432 55.28 30.9965 55.06 31.3698 54.62C31.7432 54.1667 32.0698 53.46 32.3498 52.5C32.7365 52.8467 33.0032 53.2333 33.1498 53.66C32.7632 54.9267 32.2432 55.82 31.5898 56.34C30.9365 56.8467 30.2898 57.1 29.6498 57.1ZM26.4298 48.94C25.5765 48.94 24.8965 49.2667 24.3898 49.92C23.8965 50.56 23.6032 51.52 23.5098 52.8C23.4965 52.92 23.4898 53.0333 23.4898 53.14C23.4898 53.7933 23.6432 54.3133 23.9498 54.7C24.2698 55.0867 24.6765 55.28 25.1698 55.28C26.0098 55.28 26.6432 54.6867 27.0698 53.5L27.5498 49.18C27.1632 49.02 26.7898 48.94 26.4298 48.94ZM45.0469 41.78C45.6735 41.78 46.1669 41.9667 46.5269 42.34C46.9002 42.7 47.0869 43.16 47.0869 43.72C47.0869 44.7333 46.7269 45.56 46.0069 46.2C45.2869 46.84 44.3335 47.44 43.1469 48C42.1869 50.48 41.0402 53.48 39.7069 57H36.3869C35.9335 50.6533 35.6602 46.9667 35.5669 45.94C35.4869 44.9 35.3935 44.2867 35.2869 44.1C35.1935 43.9133 35.0069 43.82 34.7269 43.82C34.0202 43.82 33.2935 45.0667 32.5469 47.56C31.9069 47.2533 31.4602 47.0267 31.2069 46.88C31.8869 44.68 32.6602 43.2067 33.5269 42.46C34.1135 41.9533 34.8135 41.7 35.6269 41.7C36.3602 41.7 36.9269 41.94 37.3269 42.42C37.7269 42.9 37.9935 43.8333 38.1269 45.22C38.1935 45.9533 38.2869 47.3933 38.4069 49.54C38.5402 51.6733 38.6335 53.0867 38.6869 53.78H38.8069L41.8669 45.28C42.3069 44.04 42.6802 43.22 42.9869 42.82C43.4935 42.1267 44.1802 41.78 45.0469 41.78ZM45.7269 44.3C45.7269 44.1267 45.6735 43.9867 45.5669 43.88C45.4602 43.7733 45.3135 43.72 45.1269 43.72C44.9535 43.72 44.8002 43.86 44.6669 44.14C44.5469 44.42 44.2735 45.1 43.8469 46.18C45.1002 45.5267 45.7269 44.9 45.7269 44.3ZM54.0839 47.58C53.5372 51.9 53.2639 54.2 53.2639 54.48C53.2639 55.0133 53.4572 55.28 53.8439 55.28C54.1906 55.28 54.5639 55.0467 54.9639 54.58C55.3772 54.1 55.7039 53.3867 55.9439 52.44C56.3839 52.92 56.6506 53.2933 56.7439 53.56C56.4372 54.8533 55.9506 55.7667 55.2839 56.3C54.6172 56.8333 53.9306 57.1 53.2239 57.1C52.0639 57.1 51.2839 56.6533 50.8839 55.76C50.1906 56.6533 49.2639 57.1 48.1039 57.1C47.1439 57.1 46.4039 56.86 45.8839 56.38C45.3639 55.9 45.1039 55.2733 45.1039 54.5C45.1039 54.3133 45.1372 53.9867 45.2039 53.52C45.5106 51.04 45.7439 49.0667 45.9039 47.6C46.3172 47.4533 46.6972 47.38 47.0439 47.38C47.3906 47.38 47.6506 47.3933 47.8239 47.42C47.9972 47.4467 48.1639 47.5467 48.3239 47.72C48.4839 47.8933 48.5639 48.14 48.5639 48.46L47.9039 53.56C47.8772 53.72 47.8639 53.8667 47.8639 54C47.8639 54.7867 48.2239 55.18 48.9439 55.18C49.6106 55.18 50.1639 54.8533 50.6039 54.2C50.6039 54.0533 50.6172 53.82 50.6439 53.5L51.3039 48.18C51.3972 47.9533 51.5972 47.7667 51.9039 47.62C52.2106 47.46 52.5906 47.38 53.0439 47.38C53.5106 47.38 53.8572 47.4467 54.0839 47.58ZM59.0206 52.52C59.8473 52.3467 60.4606 52.0133 60.8606 51.52C61.274 51.0267 61.4806 50.5533 61.4806 50.1C61.4806 49.6333 61.354 49.32 61.1006 49.16C60.8606 48.9867 60.594 48.9 60.3006 48.9C59.674 48.9 59.1206 49.2533 58.6406 49.96C58.174 50.6533 57.9406 51.4867 57.9406 52.46C57.9406 53.42 58.1673 54.14 58.6206 54.62C59.0873 55.0867 59.6606 55.32 60.3406 55.32C61.3406 55.32 62.3006 54.9733 63.2206 54.28C64.1406 53.5867 64.8873 52.68 65.4606 51.56C65.754 51.84 66.0206 52.1867 66.2606 52.6C65.8206 53.6 65.0406 54.58 63.9206 55.54C63.3606 56.0067 62.694 56.3867 61.9206 56.68C61.1606 56.9733 60.374 57.12 59.5606 57.12C58.2273 57.12 57.174 56.7133 56.4006 55.9C55.574 55.02 55.1606 53.8933 55.1606 52.52C55.1606 51.1467 55.674 49.9467 56.7006 48.92C57.7406 47.8933 58.9806 47.38 60.4206 47.38C61.4473 47.38 62.2806 47.6067 62.9206 48.06C63.5606 48.5 63.8873 49.1 63.9006 49.86C63.9006 50.8867 63.4873 51.72 62.6606 52.36C61.8473 53 60.7273 53.4467 59.3006 53.7L59.0206 52.52Z" fill="black"/>
</svg>
