<svg width="43" height="40" viewBox="0 0 43 40" fill="none" xmlns="http://www.w3.org/2000/svg">
<path d="M10.2598 23.0413L22.1271 34.9085C22.6743 35.4751 22.9771 36.234 22.9703 37.0217C22.9635 37.8095 22.6475 38.563 22.0905 39.12C21.5334 39.6771 20.7799 39.993 19.9922 39.9999C19.2044 40.0067 18.4455 39.7039 17.8789 39.1566L0.883255 22.161C0.603294 21.8826 0.381123 21.5517 0.229519 21.1871C0.0779152 20.8226 -0.0001297 20.4317 -0.0001297 20.0369C-0.0001297 19.6421 0.0779152 19.2512 0.229519 18.8867C0.381123 18.5222 0.603294 18.1912 0.883255 17.9128L17.8789 0.917194C18.156 0.630245 18.4876 0.401371 18.8541 0.243916C19.2206 0.0864601 19.6149 0.00357819 20.0138 0.000114441C20.4127 -0.00335312 20.8083 0.0726624 21.1775 0.223724C21.5468 0.374786 21.8822 0.597866 22.1643 0.879955C22.4464 1.16204 22.6695 1.49748 22.8205 1.86671C22.9716 2.23593 23.0476 2.63155 23.0441 3.03046C23.0407 3.42938 22.9578 3.82361 22.8003 4.19015C22.6429 4.55669 22.414 4.88821 22.1271 5.16535L10.2598 17.0326L39.0596 17.0326C39.8564 17.0326 40.6206 17.3491 41.184 17.9125C41.7474 18.4759 42.064 19.2401 42.064 20.0369C42.064 20.8337 41.7474 21.5979 41.184 22.1613C40.6206 22.7247 39.8564 23.0413 39.0596 23.0413L10.2598 23.0413Z" fill="#001D6C"/>
</svg>
