<svg width="40" height="41" viewBox="0 0 40 41" fill="none" xmlns="http://www.w3.org/2000/svg">
<path fill-rule="evenodd" clip-rule="evenodd" d="M4.48248 13.7322C4.95132 13.2634 5.5872 13 6.25024 13H33.7502C34.4133 13 35.0492 13.2634 35.518 13.7322C35.9869 14.2011 36.2502 14.837 36.2502 15.5V32.4727C36.2502 35.5618 33.6412 38 30.6252 38H9.37524C6.32239 38 3.75024 35.4279 3.75024 32.375V15.5C3.75024 14.837 4.01364 14.2011 4.48248 13.7322ZM33.7502 15.5L6.25024 15.5L6.25024 32.375C6.25024 34.0471 7.7031 35.5 9.37524 35.5H30.6252C32.3343 35.5 33.7502 34.1085 33.7502 32.4727V15.5Z" fill="#21272A"/>
<path fill-rule="evenodd" clip-rule="evenodd" d="M20.0002 5.5C18.3426 5.5 16.7529 6.15848 15.5808 7.33058C14.4087 8.50269 13.7502 10.0924 13.7502 11.75V14.25C13.7502 14.9404 13.1906 15.5 12.5002 15.5C11.8099 15.5 11.2502 14.9404 11.2502 14.25V11.75C11.2502 9.42936 12.1721 7.20376 13.8131 5.56282C15.454 3.92187 17.6796 3 20.0002 3C22.3209 3 24.5465 3.92187 26.1874 5.56282C27.8284 7.20376 28.7502 9.42936 28.7502 11.75V14.25C28.7502 14.9404 28.1906 15.5 27.5002 15.5C26.8099 15.5 26.2502 14.9404 26.2502 14.25V11.75C26.2502 10.0924 25.5918 8.50269 24.4197 7.33058C23.2476 6.15848 21.6578 5.5 20.0002 5.5Z" fill="#21272A"/>
<path fill-rule="evenodd" clip-rule="evenodd" d="M12.5002 16.75C13.1906 16.75 13.7502 17.3096 13.7502 18V19.25C13.7502 20.9076 14.4087 22.4973 15.5808 23.6694C16.7529 24.8415 18.3426 25.5 20.0002 25.5C21.6578 25.5 23.2476 24.8415 24.4197 23.6694C25.5918 22.4973 26.2502 20.9076 26.2502 19.25V18C26.2502 17.3096 26.8099 16.75 27.5002 16.75C28.1906 16.75 28.7502 17.3096 28.7502 18V19.25C28.7502 21.5706 27.8284 23.7962 26.1874 25.4372C24.5465 27.0781 22.3209 28 20.0002 28C17.6796 28 15.454 27.0781 13.8131 25.4372C12.1721 23.7962 11.2502 21.5706 11.2502 19.25V18C11.2502 17.3096 11.8099 16.75 12.5002 16.75Z" fill="#21272A"/>
</svg>
