<svg width="20" height="20" viewBox="0 0 20 20" fill="none" xmlns="http://www.w3.org/2000/svg">
<path d="M4.37617 8.068C4.16342 8.68988 4.05528 9.34274 4.05617 10C4.05617 10.734 4.18817 11.437 4.43217 12.086C4.73627 12.8972 5.21396 13.6321 5.8318 14.2393C6.44964 14.8466 7.19271 15.3115 8.00902 15.6015C8.82532 15.8916 9.69515 15.9998 10.5576 15.9185C11.4201 15.8372 12.2544 15.5684 13.0022 15.131H13.0032C14.1812 14.4404 15.0863 13.3661 15.5672 12.088H10.2202V8.132H19.8252C20.0736 9.44049 20.0586 10.7854 19.7812 12.088C19.3004 14.3399 18.057 16.3568 16.2612 17.798C14.4874 19.2264 12.2776 20.0035 10.0002 20C8.28313 20.001 6.59479 19.5597 5.0978 18.7187C3.60081 17.8778 2.34562 16.6655 1.45318 15.1986C0.560729 13.7317 0.0610993 12.0597 0.00242265 10.3437C-0.056254 8.62764 0.328001 6.92542 1.11817 5.401C1.96114 3.77291 3.23555 2.40796 4.80204 1.4554C6.36853 0.502843 8.16679 -0.000642863 10.0002 6.16024e-07C12.4262 6.16024e-07 14.6512 0.864001 16.3832 2.302L13.1432 4.954C12.3842 4.48164 11.5285 4.18643 10.6397 4.09034C9.7509 3.99424 8.85188 4.09972 8.00947 4.39894C7.16706 4.69816 6.40294 5.18342 5.77391 5.81864C5.14488 6.45386 4.66712 7.2227 4.37617 8.068Z" fill="#0F62FE"/>
</svg>
