<svg width="30" height="30" viewBox="0 0 30 30" fill="none" xmlns="http://www.w3.org/2000/svg">
<path d="M6.875 17.5C7.59541 17.4999 8.29374 17.7486 8.85181 18.2042C9.40989 18.6598 9.79342 19.2941 9.9375 20H18.75V7.5H5C4.33696 7.5 3.70107 7.76339 3.23223 8.23223C2.76339 8.70107 2.5 9.33696 2.5 10V20H3.8125C3.95658 19.2941 4.34011 18.6598 4.89819 18.2042C5.45626 17.7486 6.15459 17.4999 6.875 17.5ZM6.875 23.75C6.15459 23.7501 5.45626 23.5014 4.89819 23.0458C4.34011 22.5902 3.95658 21.9559 3.8125 21.25H1.25V10C1.25 9.00544 1.64509 8.05161 2.34835 7.34835C3.05161 6.64509 4.00544 6.25 5 6.25H18.75C19.0815 6.25 19.3995 6.3817 19.6339 6.61612C19.8683 6.85054 20 7.16848 20 7.5V10H23.75L27.5 15V21.25H24.9375C24.7941 21.9564 24.4108 22.5915 23.8527 23.0477C23.2945 23.5039 22.5958 23.7531 21.875 23.7531C21.1542 23.7531 20.4555 23.5039 19.8973 23.0477C19.3392 22.5915 18.9559 21.9564 18.8125 21.25H9.9375C9.79342 21.9559 9.40989 22.5902 8.85181 23.0458C8.29374 23.5014 7.59541 23.7501 6.875 23.75ZM6.875 18.75C6.37772 18.75 5.90081 18.9475 5.54917 19.2992C5.19754 19.6508 5 20.1277 5 20.625C5 21.1223 5.19754 21.5992 5.54917 21.9508C5.90081 22.3025 6.37772 22.5 6.875 22.5C7.37228 22.5 7.84919 22.3025 8.20083 21.9508C8.55246 21.5992 8.75 21.1223 8.75 20.625C8.75 20.1277 8.55246 19.6508 8.20083 19.2992C7.84919 18.9475 7.37228 18.75 6.875 18.75ZM21.875 17.5C22.5954 17.4999 23.2937 17.7486 23.8518 18.2042C24.4099 18.6598 24.7934 19.2941 24.9375 20H26.25V15.4L25.95 15H20V18.125C20.525 17.7375 21.175 17.5 21.875 17.5ZM21.875 18.75C21.3777 18.75 20.9008 18.9475 20.5492 19.2992C20.1975 19.6508 20 20.1277 20 20.625C20 21.1223 20.1975 21.5992 20.5492 21.9508C20.9008 22.3025 21.3777 22.5 21.875 22.5C22.3723 22.5 22.8492 22.3025 23.2008 21.9508C23.5525 21.5992 23.75 21.1223 23.75 20.625C23.75 20.1277 23.5525 19.6508 23.2008 19.2992C22.8492 18.9475 22.3723 18.75 21.875 18.75ZM20 11.25V13.75H25L23.125 11.25H20Z" fill="#697077"/>
</svg>
