<svg width="129" height="97" viewBox="0 0 129 97" fill="none" xmlns="http://www.w3.org/2000/svg">
<path d="M54.0806 28.4492C58.0808 24.1079 69.774 21.7127 74.3897 28.4492" stroke="#A02727" stroke-width="7"/>
<ellipse cx="28.6941" cy="28" rx="25.6941" ry="25" stroke="#A02727" stroke-width="6"/>
<ellipse cx="28.694" cy="27.9999" rx="25.3864" ry="24.7006" fill="#161C22"/>
<ellipse cx="41.9258" cy="15.7243" rx="6.92356" ry="6.73653" fill="#2B4F72"/>
<ellipse cx="100.084" cy="28" rx="25.6941" ry="25" stroke="#A02727" stroke-width="6"/>
<ellipse cx="100.083" cy="27.9999" rx="25.3864" ry="24.7006" fill="#161C22"/>
<ellipse cx="113.316" cy="15.7243" rx="6.92356" ry="6.73653" fill="#2B4F72"/>
<path d="M32.6333 66.74C32.2133 67.66 31.5933 68.42 30.7733 69.02C29.9533 69.62 29.0633 69.92 28.1033 69.92C27.1433 69.92 26.3533 69.64 25.7333 69.08C25.1333 68.52 24.8333 67.69 24.8333 66.59C24.8333 65.49 25.3233 64.65 26.3033 64.07C27.2833 63.47 28.4333 63.17 29.7533 63.17H41.6633C41.7233 63.45 41.7533 63.72 41.7533 63.98C41.7533 64.66 41.5333 65.29 41.0933 65.87C40.6533 66.45 39.9833 66.74 39.0833 66.74C39.0433 66.74 39.0133 66.74 38.9933 66.74H32.6333ZM28.7333 66.74C27.9933 66.74 27.6233 67 27.6233 67.52C27.6233 67.94 27.9433 68.15 28.5833 68.15C28.8833 68.15 29.2333 68.02 29.6333 67.76C30.0533 67.5 30.4033 67.16 30.6833 66.74H28.7333ZM34.9433 80.24C34.4433 84.16 32.6733 86.12 29.6333 86.12C28.5533 86.12 27.6833 85.79 27.0233 85.13C26.3833 84.47 26.0633 83.64 26.0633 82.64C26.0633 80.3 27.8433 78.3 31.4033 76.64L32.4533 68.66C33.2733 68.14 34.2233 67.88 35.3033 67.88C35.8033 67.88 36.2833 67.93 36.7433 68.03L34.9433 80.24ZM31.0733 79.19C29.2133 80.27 28.2833 81.31 28.2833 82.31C28.2833 83.03 28.6333 83.39 29.3333 83.39C30.1333 83.39 30.6333 82.62 30.8333 81.08L31.0733 79.19ZM49.808 86.15C47.968 86.15 46.748 85.51 46.148 84.23C45.108 85.53 43.768 86.18 42.128 86.18C40.508 86.18 39.138 85.63 38.018 84.53C36.918 83.43 36.368 81.98 36.368 80.18C36.368 77.56 37.138 75.47 38.678 73.91C40.218 72.35 42.168 71.57 44.528 71.57C44.588 71.57 44.648 71.57 44.708 71.57C45.708 71.57 46.628 71.74 47.468 72.08C48.008 71.74 48.658 71.57 49.418 71.57C50.198 71.57 50.758 71.67 51.098 71.87C50.918 73.35 50.728 74.81 50.528 76.25C50.328 77.67 50.188 78.68 50.108 79.28C49.928 80.64 49.838 81.62 49.838 82.22C49.838 83.02 50.158 83.42 50.798 83.42C51.298 83.42 51.828 83.09 52.388 82.43C52.948 81.75 53.438 80.69 53.858 79.25C54.438 79.77 54.838 80.35 55.058 80.99C54.478 82.89 53.698 84.23 52.718 85.01C51.738 85.77 50.768 86.15 49.808 86.15ZM44.978 73.91C43.698 73.91 42.678 74.4 41.918 75.38C41.178 76.34 40.738 77.78 40.598 79.7C40.578 79.88 40.568 80.05 40.568 80.21C40.568 81.19 40.798 81.97 41.258 82.55C41.738 83.13 42.348 83.42 43.088 83.42C44.348 83.42 45.298 82.53 45.938 80.75L46.658 74.27C46.078 74.03 45.518 73.91 44.978 73.91ZM72.9036 63.17C73.8436 63.17 74.5836 63.45 75.1236 64.01C75.6836 64.55 75.9636 65.24 75.9636 66.08C75.9636 67.6 75.4236 68.84 74.3436 69.8C73.2636 70.76 71.8336 71.66 70.0536 72.5C68.6136 76.22 66.8936 80.72 64.8936 86H59.9136C59.2336 76.48 58.8236 70.95 58.6836 69.41C58.5636 67.85 58.4236 66.93 58.2636 66.65C58.1236 66.37 57.8436 66.23 57.4236 66.23C56.3636 66.23 55.2736 68.1 54.1536 71.84C53.1936 71.38 52.5236 71.04 52.1436 70.82C53.1636 67.52 54.3236 65.31 55.6236 64.19C56.5036 63.43 57.5536 63.05 58.7736 63.05C59.8736 63.05 60.7236 63.41 61.3236 64.13C61.9236 64.85 62.3236 66.25 62.5236 68.33C62.6236 69.43 62.7636 71.59 62.9436 74.81C63.1436 78.01 63.2836 80.13 63.3636 81.17H63.5436L68.1336 68.42C68.7936 66.56 69.3536 65.33 69.8136 64.73C70.5736 63.69 71.6036 63.17 72.9036 63.17ZM73.9236 66.95C73.9236 66.69 73.8436 66.48 73.6836 66.32C73.5236 66.16 73.3036 66.08 73.0236 66.08C72.7636 66.08 72.5336 66.29 72.3336 66.71C72.1536 67.13 71.7436 68.15 71.1036 69.77C72.9836 68.79 73.9236 67.85 73.9236 66.95ZM86.4591 71.87C85.6391 78.35 85.2291 81.8 85.2291 82.22C85.2291 83.02 85.5191 83.42 86.0991 83.42C86.6191 83.42 87.1791 83.07 87.7791 82.37C88.3991 81.65 88.8891 80.58 89.2491 79.16C89.9091 79.88 90.3091 80.44 90.4491 80.84C89.9891 82.78 89.2591 84.15 88.2591 84.95C87.2591 85.75 86.2291 86.15 85.1691 86.15C83.4291 86.15 82.2591 85.48 81.6591 84.14C80.6191 85.48 79.2291 86.15 77.4891 86.15C76.0491 86.15 74.9391 85.79 74.1591 85.07C73.3791 84.35 72.9891 83.41 72.9891 82.25C72.9891 81.97 73.0391 81.48 73.1391 80.78C73.5991 77.06 73.9491 74.1 74.1891 71.9C74.8091 71.68 75.3791 71.57 75.8991 71.57C76.4191 71.57 76.8091 71.59 77.0691 71.63C77.3291 71.67 77.5791 71.82 77.8191 72.08C78.0591 72.34 78.1791 72.71 78.1791 73.19L77.1891 80.84C77.1491 81.08 77.1291 81.3 77.1291 81.5C77.1291 82.68 77.6691 83.27 78.7491 83.27C79.7491 83.27 80.5791 82.78 81.2391 81.8C81.2391 81.58 81.2591 81.23 81.2991 80.75L82.2891 72.77C82.4291 72.43 82.7291 72.15 83.1891 71.93C83.6491 71.69 84.2191 71.57 84.8991 71.57C85.5991 71.57 86.1191 71.67 86.4591 71.87ZM93.8642 79.28C95.1042 79.02 96.0242 78.52 96.6242 77.78C97.2442 77.04 97.5542 76.33 97.5542 75.65C97.5542 74.95 97.3642 74.48 96.9842 74.24C96.6242 73.98 96.2242 73.85 95.7842 73.85C94.8442 73.85 94.0142 74.38 93.2942 75.44C92.5942 76.48 92.2442 77.73 92.2442 79.19C92.2442 80.63 92.5842 81.71 93.2642 82.43C93.9642 83.13 94.8242 83.48 95.8442 83.48C97.3442 83.48 98.7842 82.96 100.164 81.92C101.544 80.88 102.664 79.52 103.524 77.84C103.964 78.26 104.364 78.78 104.724 79.4C104.064 80.9 102.894 82.37 101.214 83.81C100.374 84.51 99.3742 85.08 98.2142 85.52C97.0742 85.96 95.8942 86.18 94.6742 86.18C92.6742 86.18 91.0942 85.57 89.9342 84.35C88.6942 83.03 88.0742 81.34 88.0742 79.28C88.0742 77.22 88.8442 75.42 90.3842 73.88C91.9442 72.34 93.8042 71.57 95.9642 71.57C97.5042 71.57 98.7542 71.91 99.7142 72.59C100.674 73.25 101.164 74.15 101.184 75.29C101.184 76.83 100.564 78.08 99.3242 79.04C98.1042 80 96.4242 80.67 94.2842 81.05L93.8642 79.28Z" fill="black"/>
</svg>
