<svg width="30" height="30" viewBox="0 0 30 30" fill="none" xmlns="http://www.w3.org/2000/svg">
<path d="M10.7338 10.295L13.9813 3.75499C14.0758 3.56572 14.2212 3.40653 14.4012 3.29526C14.5811 3.184 14.7885 3.12506 15.0001 3.12506C15.2116 3.12506 15.419 3.184 15.5989 3.29526C15.7789 3.40653 15.9243 3.56572 16.0188 3.75499L19.2663 10.295L26.5263 11.35C26.7357 11.379 26.9327 11.4664 27.0949 11.602C27.257 11.7377 27.3778 11.9162 27.4434 12.1171C27.5089 12.3181 27.5167 12.5335 27.4657 12.7387C27.4147 12.9439 27.3071 13.1306 27.1551 13.2775L21.9026 18.365L23.1426 25.5525C23.3013 26.475 22.3263 27.1775 21.4926 26.7425L15.0001 23.3475L8.5063 26.7425C7.6738 27.1787 6.6988 26.475 6.85755 25.5512L8.09755 18.3637L2.84505 13.2762C2.69379 13.1292 2.5868 12.9427 2.53626 12.7379C2.48572 12.5331 2.49364 12.3182 2.55914 12.1177C2.62464 11.9171 2.74507 11.739 2.90676 11.6035C3.06845 11.468 3.26491 11.3806 3.4738 11.3512L10.7338 10.295Z" stroke="#697077" stroke-width="1.5" stroke-linecap="round" stroke-linejoin="round"/>
</svg>
